<svg width="231" height="40" viewBox="0 0 231 40" fill="none" xmlns="http://www.w3.org/2000/svg">
<path d="M79.7298 5.25333C81.5058 5.25333 82.9588 5.52 84.089 6.05333C85.246 6.56 86.2685 7.16 87.1565 7.85333C87.6947 8.25333 88.0983 8.30666 88.3674 8.01333C88.6634 7.69333 88.8652 6.96 88.9728 5.81333H89.9011C89.8473 6.85333 89.807 8.13333 89.7801 9.65333C89.7532 11.1733 89.7397 13.1733 89.7397 15.6533H88.8114C88.7037 14.4 88.5288 13.3067 88.2867 12.3733C88.0714 11.44 87.7485 10.6133 87.318 9.89333C86.8874 9.17333 86.2685 8.53333 85.4613 7.97333C84.8424 7.46666 84.1428 7.08 83.3624 6.81333C82.609 6.52 81.8287 6.37333 81.0214 6.37333C79.5415 6.37333 78.2902 6.78666 77.2677 7.61333C76.2721 8.41333 75.4648 9.48 74.8459 10.8133C74.254 12.12 73.8234 13.5867 73.5543 15.2133C73.3122 16.8133 73.1911 18.4267 73.1911 20.0533C73.1911 21.7067 73.3256 23.3467 73.5947 24.9733C73.8638 26.5733 74.2943 28.0267 74.8863 29.3333C75.5052 30.64 76.3259 31.6933 77.3484 32.4933C78.3709 33.2667 79.6222 33.6533 81.1021 33.6533C81.8825 33.6533 82.6494 33.52 83.4028 33.2533C84.1831 32.9867 84.8828 32.6 85.5016 32.0933C86.6856 31.2933 87.4794 30.2533 87.883 28.9733C88.3136 27.6667 88.623 25.9733 88.8114 23.8933H89.7397C89.7397 26.48 89.7532 28.5733 89.7801 30.1733C89.807 31.7467 89.8473 33.0667 89.9011 34.1333H88.9728C88.8652 32.9867 88.6768 32.2667 88.4077 31.9733C88.1656 31.68 87.7485 31.72 87.1565 32.0933C86.1609 32.7867 85.098 33.4 83.9679 33.9333C82.8646 34.44 81.4385 34.6933 79.6894 34.6933C76.7564 34.6933 74.1732 34.12 71.9398 32.9733C69.7334 31.8267 68.0112 30.1733 66.7735 28.0133C65.5626 25.8533 64.9571 23.2533 64.9571 20.2133C64.9571 17.2267 65.5895 14.6133 66.8542 12.3733C68.1189 10.1333 69.8545 8.38666 72.0609 7.13333C74.2943 5.88 76.8506 5.25333 79.7298 5.25333Z" fill="#FFFBF3"/>
<path d="M107.537 5.77333L117.305 30.7733C117.708 31.7067 118.125 32.36 118.556 32.7333C119.013 33.1067 119.417 33.3067 119.767 33.3333V34.1333C118.906 34.08 117.87 34.0533 116.659 34.0533C115.475 34.0267 114.264 34.0133 113.026 34.0133C111.735 34.0133 110.51 34.0267 109.353 34.0533C108.196 34.0533 107.268 34.08 106.568 34.1333V33.3333C107.941 33.28 108.815 33.0533 109.192 32.6533C109.569 32.2267 109.488 31.3333 108.95 29.9733L102.25 11.8133L103.057 10.6133L97.1639 25.6933C96.545 27.2933 96.1683 28.5867 96.0337 29.5733C95.8992 30.56 95.9665 31.32 96.2355 31.8533C96.5046 32.3867 96.9217 32.76 97.4868 32.9733C98.0788 33.1867 98.7784 33.3067 99.5856 33.3333V34.1333C98.6438 34.08 97.7693 34.0533 96.9621 34.0533C96.1817 34.0267 95.3341 34.0133 94.4192 34.0133C93.8811 34.0133 93.3294 34.0267 92.7644 34.0533C92.2262 34.0533 91.7553 34.08 91.3517 34.1333V33.3333C91.9437 33.2267 92.5356 32.8533 93.1276 32.2133C93.7465 31.5733 94.352 30.4667 94.9439 28.8933L104.025 5.77333C104.564 5.82666 105.142 5.85333 105.761 5.85333C106.407 5.85333 106.999 5.82666 107.537 5.77333ZM109.636 22.6133V23.4133H97.6079L98.0115 22.6133H109.636Z" fill="#FFFBF3"/>
<path d="M143.115 5.81333C143.008 7.28 142.927 8.69333 142.873 10.0533C142.846 11.4133 142.833 12.4533 142.833 13.1733C142.833 13.76 142.846 14.3067 142.873 14.8133C142.9 15.32 142.927 15.76 142.954 16.1333H142.025C141.487 13.76 140.842 11.8933 140.088 10.5333C139.335 9.14666 138.474 8.17333 137.505 7.61333C136.563 7.02666 135.541 6.73333 134.437 6.73333H133.953V29.5733C133.953 30.6667 134.061 31.48 134.276 32.0133C134.518 32.5467 134.949 32.9067 135.568 33.0933C136.213 33.2533 137.142 33.3333 138.353 33.3333V34.1333C137.465 34.1067 136.267 34.08 134.76 34.0533C133.28 34.0267 131.733 34.0133 130.119 34.0133C128.531 34.0133 127.038 34.0267 125.638 34.0533C124.239 34.08 123.109 34.1067 122.248 34.1333V33.3333C123.459 33.3333 124.387 33.2533 125.033 33.0933C125.679 32.9067 126.109 32.5467 126.325 32.0133C126.54 31.48 126.647 30.6667 126.647 29.5733V6.73333H126.203C125.073 6.73333 124.037 7.02666 123.096 7.61333C122.154 8.17333 121.306 9.13333 120.553 10.4933C119.799 11.8533 119.14 13.7333 118.575 16.1333H117.647C117.7 15.76 117.727 15.32 117.727 14.8133C117.754 14.3067 117.768 13.76 117.768 13.1733C117.768 12.4533 117.741 11.4133 117.687 10.0533C117.66 8.69333 117.593 7.28 117.485 5.81333C118.75 5.84 120.136 5.86666 121.642 5.89333C123.176 5.92 124.697 5.93333 126.203 5.93333C127.71 5.93333 129.083 5.93333 130.32 5.93333C131.558 5.93333 132.93 5.93333 134.437 5.93333C135.971 5.93333 137.491 5.92 138.998 5.89333C140.505 5.86666 141.878 5.84 143.115 5.81333Z" fill="#FFFBF3"/>
<path d="M160.415 5.25333C162.191 5.25333 163.644 5.52 164.774 6.05333C165.932 6.56 166.954 7.16 167.842 7.85333C168.38 8.25333 168.784 8.30666 169.053 8.01333C169.349 7.69333 169.551 6.96 169.658 5.81333H170.587C170.533 6.85333 170.493 8.13333 170.466 9.65333C170.439 11.1733 170.425 13.1733 170.425 15.6533H169.497C169.389 14.4 169.214 13.3067 168.972 12.3733C168.757 11.44 168.434 10.6133 168.003 9.89333C167.573 9.17333 166.954 8.53333 166.147 7.97333C165.528 7.46666 164.828 7.08 164.048 6.81333C163.295 6.52 162.514 6.37333 161.707 6.37333C160.227 6.37333 158.976 6.78666 157.953 7.61333C156.958 8.41333 156.15 9.48 155.531 10.8133C154.939 12.12 154.509 13.5867 154.24 15.2133C153.998 16.8133 153.877 18.4267 153.877 20.0533C153.877 21.7067 154.011 23.3467 154.28 24.9733C154.549 26.5733 154.98 28.0267 155.572 29.3333C156.191 30.64 157.011 31.6933 158.034 32.4933C159.056 33.2667 160.308 33.6533 161.788 33.6533C162.568 33.6533 163.335 33.52 164.088 33.2533C164.869 32.9867 165.568 32.6 166.187 32.0933C167.371 31.2933 168.165 30.2533 168.569 28.9733C168.999 27.6667 169.309 25.9733 169.497 23.8933H170.425C170.425 26.48 170.439 28.5733 170.466 30.1733C170.493 31.7467 170.533 33.0667 170.587 34.1333H169.658C169.551 32.9867 169.362 32.2667 169.093 31.9733C168.851 31.68 168.434 31.72 167.842 32.0933C166.846 32.7867 165.784 33.4 164.653 33.9333C163.55 34.44 162.124 34.6933 160.375 34.6933C157.442 34.6933 154.859 34.12 152.625 32.9733C150.419 31.8267 148.697 30.1733 147.459 28.0133C146.248 25.8533 145.643 23.2533 145.643 20.2133C145.643 17.2267 146.275 14.6133 147.54 12.3733C148.804 10.1333 150.54 8.38666 152.746 7.13333C154.98 5.88 157.536 5.25333 160.415 5.25333Z" fill="#FFFBF3"/>
<path d="M191.209 34.1333V33.3333C192.044 33.28 192.662 33.1733 193.066 33.0133C193.497 32.8533 193.779 32.5333 193.914 32.0533C194.075 31.5733 194.156 30.8533 194.156 29.8933V10.0533C194.156 9.06666 194.075 8.34666 193.914 7.89333C193.779 7.41333 193.497 7.09333 193.066 6.93333C192.662 6.74666 192.044 6.64 191.209 6.61333V5.81333C191.99 5.84 192.999 5.86666 194.237 5.89333C195.474 5.92 196.712 5.93333 197.95 5.93333C199.268 5.93333 200.493 5.92 201.623 5.89333C202.78 5.86666 203.708 5.84 204.408 5.81333V6.61333C203.574 6.64 202.941 6.74666 202.511 6.93333C202.08 7.09333 201.798 7.41333 201.663 7.89333C201.529 8.34666 201.461 9.06666 201.461 10.0533V29.8933C201.461 30.8533 201.529 31.5733 201.663 32.0533C201.825 32.5333 202.107 32.8533 202.511 33.0133C202.941 33.1733 203.574 33.28 204.408 33.3333V34.1333C203.708 34.08 202.78 34.0533 201.623 34.0533C200.493 34.0267 199.268 34.0133 197.95 34.0133C196.712 34.0133 195.474 34.0267 194.237 34.0533C192.999 34.0533 191.99 34.08 191.209 34.1333ZM174.015 34.1333V33.3333C174.849 33.28 175.468 33.1733 175.872 33.0133C176.302 32.8533 176.585 32.5333 176.719 32.0533C176.881 31.5733 176.961 30.8533 176.961 29.8933V10.0533C176.961 9.06666 176.881 8.34666 176.719 7.89333C176.585 7.41333 176.302 7.09333 175.872 6.93333C175.468 6.74666 174.849 6.64 174.015 6.61333V5.81333C174.742 5.84 175.71 5.86666 176.921 5.89333C178.132 5.92 179.424 5.93333 180.796 5.93333C181.98 5.93333 183.15 5.92 184.307 5.89333C185.491 5.86666 186.46 5.84 187.214 5.81333V6.61333C186.379 6.64 185.747 6.74666 185.316 6.93333C184.886 7.09333 184.603 7.41333 184.469 7.89333C184.334 8.34666 184.267 9.06666 184.267 10.0533V29.8933C184.267 30.8533 184.334 31.5733 184.469 32.0533C184.63 32.5333 184.913 32.8533 185.316 33.0133C185.747 33.1733 186.379 33.28 187.214 33.3333V34.1333C186.46 34.08 185.491 34.0533 184.307 34.0533C183.15 34.0267 181.98 34.0133 180.796 34.0133C179.424 34.0133 178.132 34.0267 176.921 34.0533C175.71 34.0533 174.742 34.08 174.015 34.1333ZM181.24 20.2933V19.4933H197.183V20.2933H181.24Z" fill="#FFFBF3"/>
<path d="M230.943 5.77333V6.57333C230.351 6.84 229.719 7.36 229.046 8.13333C228.401 8.88 227.688 10.0133 226.907 11.5333L219.44 26.1733H217.139L207.695 8.85333C207.237 7.97333 206.807 7.38666 206.403 7.09333C205.999 6.77333 205.65 6.61333 205.354 6.61333V5.77333C206.134 5.85333 206.941 5.92 207.775 5.97333C208.609 6 209.524 6.01333 210.52 6.01333C211.812 6.01333 213.197 5.98666 214.677 5.93333C216.157 5.88 217.516 5.82666 218.754 5.77333V6.61333C218.081 6.61333 217.462 6.65333 216.897 6.73333C216.359 6.81333 215.969 6.97333 215.727 7.21333C215.511 7.45333 215.538 7.85333 215.807 8.41333L222.064 20.2933L220.49 22.3333L224.284 14.8133C225.333 12.76 225.898 11.1467 225.979 9.97333C226.086 8.77333 225.831 7.91999 225.212 7.41333C224.62 6.88 223.786 6.6 222.709 6.57333V5.77333C223.678 5.8 224.553 5.82666 225.333 5.85333C226.14 5.88 226.988 5.89333 227.876 5.89333C228.441 5.89333 228.993 5.88 229.531 5.85333C230.069 5.82666 230.54 5.8 230.943 5.77333ZM222.629 19.1333V29.8933C222.629 30.8533 222.696 31.5733 222.831 32.0533C222.992 32.5333 223.275 32.8533 223.678 33.0133C224.109 33.1733 224.741 33.28 225.575 33.3333V34.1333C224.822 34.08 223.826 34.0533 222.588 34.0533C221.377 34.0267 220.18 34.0133 218.996 34.0133C217.678 34.0133 216.413 34.0267 215.202 34.0533C214.018 34.0533 213.076 34.08 212.377 34.1333V33.3333C213.211 33.28 213.83 33.1733 214.233 33.0133C214.664 32.8533 214.946 32.5333 215.081 32.0533C215.242 31.5733 215.323 30.8533 215.323 29.8933V21.6933L219.279 24.1733L222.629 19.1333Z" fill="#FFFBF3"/>
<path fill-rule="evenodd" clip-rule="evenodd" d="M6.39771 12.8385C7.11596 9.15351 8.90596 5.68351 11.7712 3.2112C12.2312 6.34759 14.3008 9.18481 16.8378 12.0864C16.1966 14.1757 15.8368 16.3795 15.7993 18.6528C12.4204 16.6233 8.97428 14.8283 6.39771 12.8385Z" fill="#FFFBF3"/>
<path fill-rule="evenodd" clip-rule="evenodd" d="M27.1777 0C20.9451 4.16017 16.7737 11.129 16.5029 19.0807C21.1213 21.9137 25.4875 25.2449 27.1777 30.1822C28.8675 25.2449 33.2337 21.9137 37.8522 19.0807C37.5813 11.129 33.4099 4.16017 27.1777 0Z" fill="#FFFBF3"/>
<path fill-rule="evenodd" clip-rule="evenodd" d="M5.94536 31.7831C0.456242 25.5319 -1.1845 17.255 0.826574 9.80435C5.02636 19.096 31.4545 19.7635 27.1776 39.8116C19.47 40.7752 11.4345 38.0343 5.94536 31.7831Z" fill="#FFFBF3"/>
<path fill-rule="evenodd" clip-rule="evenodd" d="M47.9573 12.8385C47.239 9.15351 45.449 5.68351 42.5838 3.2112C42.1237 6.34759 40.0542 9.18481 37.5172 12.0864C38.1584 14.1757 38.5182 16.3795 38.5557 18.6528C41.9345 16.6233 45.3807 14.8283 47.9573 12.8385Z" fill="#FFFBF3"/>
<path fill-rule="evenodd" clip-rule="evenodd" d="M48.4096 31.7831C53.8987 25.5322 55.5391 17.255 53.5284 9.80436C49.3286 19.096 22.9004 19.7635 27.1776 39.8116C34.8853 40.7752 42.9205 38.0343 48.4096 31.7831Z" fill="#FFFBF3"/>
</svg>
